<?xml version="1.0" encoding="utf-8"?>
<!-- Generator: Adobe Illustrator 22.0.1, SVG Export Plug-In . SVG Version: 6.00 Build 0)  -->
<svg version="1.2" baseProfile="tiny" id="圖層_1"
	 xmlns="http://www.w3.org/2000/svg" xmlns:xlink="http://www.w3.org/1999/xlink" x="0px" y="0px" viewBox="0 0 100 100"
	 xml:space="preserve">
<g>
	<path fill="#833AB4" d="M50,0c27.6,0,50,22.4,50,50s-22.4,50-50,50S0,77.6,0,50S22.4,0,50,0z"/>
	<path fill="#FFFFFF" d="M67.3,21.9H32.7c-6,0-10.9,4.9-10.9,10.9v34.5c0,6,4.9,10.9,10.9,10.9h34.5c6,0,10.9-4.9,10.9-10.9V32.7
		C78.1,26.7,73.3,21.9,67.3,21.9z M70.7,28.2h1.2v9.3h-9.4v-9.3C62.5,28.2,70.7,28.2,70.7,28.2z M50,40.6c7.8,0,9.4,7.3,9.4,9.4
		c0,5.2-4.2,9.4-9.4,9.4s-9.4-4.2-9.4-9.4C40.6,47.9,42.2,40.6,50,40.6z M72,66.6c0,3-2.4,5.4-5.4,5.4H33.3c-3,0-5.4-2.4-5.4-5.4
		V43.7h7.8C35,45.5,34.6,48,34.6,50c0,8.5,6.9,15.4,15.4,15.4S65.4,58.5,65.4,50c0-2-0.4-4.5-1.1-6.3H72V66.6L72,66.6z"/>
</g>
</svg>
