<?xml version="1.0" encoding="utf-8"?>
<!-- Generator: Adobe Illustrator 22.0.1, SVG Export Plug-In . SVG Version: 6.00 Build 0)  -->
<svg version="1.2" baseProfile="tiny" id="圖層_1"
	 xmlns="http://www.w3.org/2000/svg" xmlns:xlink="http://www.w3.org/1999/xlink" x="0px" y="0px" viewBox="0 0 100 100"
	 xml:space="preserve">
<path fill="#00C200" d="M99.8,50c0,27.6-22.3,49.9-49.9,49.9S0,77.5,0,50C0,22.4,22.3,0.1,49.9,0.1S99.8,22.4,99.8,50L99.8,50z"/>
<g>
	<path fill="#FFFFFF" d="M79.1,50.5c0.1-0.7,0.2-1.3,0.2-1.8c0.1-0.8,0-1.9,0-2.3C78.6,34.1,65.8,24.2,50,24.2
		c-16.2,0-29.4,10.5-29.4,23.4c0,11.9,11.1,21.7,25.5,23.2c0.9,0.1,1.5,0.9,1.4,1.8L46.9,78c-0.1,1.3,1.2,2.2,2.3,1.6
		C61.4,73.8,68.6,67.7,73,62.5c0.8-1,3.4-4.6,3.9-5.5C78,55,78.8,52.8,79.1,50.5L79.1,50.5z M79.1,50.5"/>
	<path fill="#00C500" d="M33.8,52.3v-9.8c0-0.8-0.7-1.5-1.5-1.5c-0.8,0-1.5,0.7-1.5,1.5v11.3c0,0.8,0.7,1.5,1.5,1.5h6
		c0.8,0,1.5-0.7,1.5-1.5c0-0.8-0.7-1.5-1.5-1.5H33.8z M33.8,52.3"/>
	<path fill="#00C500" d="M43.1,55.3h-0.7c-0.6,0-1.2-0.5-1.2-1.2v-12c0-0.6,0.5-1.2,1.2-1.2h0.7c0.6,0,1.2,0.5,1.2,1.2v12
		C44.3,54.8,43.8,55.3,43.1,55.3L43.1,55.3z M43.1,55.3"/>
	<path fill="#00C500" d="M55.2,42.5v6.9c0,0-6-7.8-6.1-7.9c-0.3-0.3-0.7-0.5-1.2-0.5c-0.8,0-1.4,0.7-1.4,1.6v11.3
		c0,0.8,0.7,1.5,1.5,1.5c0.8,0,1.5-0.7,1.5-1.5v-6.9c0,0,6.1,7.9,6.2,8c0.3,0.3,0.6,0.4,1,0.4c0.8,0,1.5-0.7,1.5-1.6V42.5
		c0-0.8-0.7-1.5-1.5-1.5C55.9,41,55.2,41.6,55.2,42.5L55.2,42.5z M55.2,42.5"/>
	<path fill="#00C500" d="M69.5,42.5c0-0.8-0.7-1.5-1.5-1.5h-6c-0.8,0-1.5,0.7-1.5,1.5v11.3c0,0.8,0.7,1.5,1.5,1.5h6
		c0.8,0,1.5-0.7,1.5-1.5c0-0.8-0.7-1.5-1.5-1.5h-4.5v-2.7H68c0.8,0,1.5-0.7,1.5-1.5c0-0.8-0.7-1.5-1.5-1.5h-4.5V44H68
		C68.8,44,69.5,43.3,69.5,42.5L69.5,42.5z M69.5,42.5"/>
</g>
</svg>
