<?xml version="1.0" encoding="utf-8"?>
<!-- Generator: Adobe Illustrator 22.0.1, SVG Export Plug-In . SVG Version: 6.00 Build 0)  -->
<svg version="1.2" baseProfile="tiny" id="圖層_1"
	 xmlns="http://www.w3.org/2000/svg" xmlns:xlink="http://www.w3.org/1999/xlink" x="0px" y="0px" viewBox="0 0 100 100"
	 xml:space="preserve">
<path fill="#D22328" d="M49.9,99.9c27.6,0,49.9-22.3,49.9-49.9c0-27.6-22.3-49.9-49.9-49.9C22.3,0.1,0,22.4,0,50
	C0,77.5,22.3,99.9,49.9,99.9z"/>
<path fill="#FFFFFF" d="M76,40.3c0-4.2-3.4-7.6-7.6-7.6H32.9c-4.2,0-7.6,3.4-7.6,7.6v20.3c0,4.2,3.4,7.6,7.6,7.6h35.5
	c4.2,0,7.6-3.4,7.6-7.6L76,40.3L76,40.3z M45.6,59.1V40l14.5,9.5L45.6,59.1z M45.6,59.1"/>
<g>
</g>
<g>
</g>
<g>
</g>
<g>
</g>
<g>
</g>
<g>
</g>
</svg>
