<svg xmlns="http://www.w3.org/2000/svg" baseProfile="tiny" version="1.2" viewBox="0 0 180.2 51"><path d="M32.4 42.3c.4.1.7.2 1 .4.3.1.5.3.5.4 0 .1-.1.1-.3.1s-.3 0-.3.1c-.6.8-1.2 1.4-1.9 2.1h1.4c-.1-.2-.1-.4-.2-.6l.1-.1c.5.3.8.5 1 .7.2.3.3.5.3.7s0 .4-.1.5-.3.2-.4.2c-.1 0-.2 0-.3-.1-.1 0-.1-.2-.2-.6 0-.1 0-.3-.1-.4-.2.1-.4.2-.5.3v4.6c0 .1-.2.2-.6.3h-.4c-.2 0-.3-.1-.3-.3v-2.7H31c-.2 0-.3.1-.3.1-.1.5-.3 1-.4 1.3-.2.3-.4.7-.6 1.1l-.1-.1c.1-.5.2-1 .2-1.4 0-.5.1-1 .1-1.7.3.1.7.2 1 .3.1 0 .3.1.3.1v-1.3c-.2.1-.4.1-.6.1-.1 0-.1 0-.1.1v.1c0 .1-.1.1-.1.1-.1 0-.3-.2-.5-.7-.1-.1-.1-.4-.3-.7h1.2c.8-.9 1.3-1.9 1.6-3zm-1-1.8c.4.1.7.2 1 .4.3.1.5.3.5.4 0 .1-.1.1-.3.1s-.3 0-.3.1c-.4.5-.8 1-1.4 1.5.1.1.2.1.2.1.2.2.3.4.3.7 0 .2-.1.3-.2.5-.1.1-.2.1-.4.1s-.3-.1-.4-.4c-.1-.4-.4-.8-.8-1.2l.1-.1c.3.1.5.2.7.2.6-.9.8-1.6 1-2.4zm1.4 6.3c.4.3.7.6.8.8.1.1.1.2.1.3.7-.2 1.5-.5 2.4-1v-2h-2.5l-.2-.4c.4.1.9.1 1.5.1h1.8l.2-1h-1.6l-.1.3c0 .1-.2.2-.7.2-.4 0-.6-.1-.6-.2.7-1.5 1-2.7 1-3.3.5.1.9.2 1.2.3s.5.2.5.3-.1.2-.3.2c-.2.1-.3.1-.3.2v.1h1.2c.2-.1.3-.3.4-.4.2-.2.4-.3.4-.3.1 0 .4.1.7.4.3.3.5.5.5.6s-.1.2-.4.2c-.2.1-.3.1-.3.3l-.5 2.1h.2l.4-.4.4-.4c.1 0 .3.1.6.4.3.3.4.5.4.5 0 .1-.1.2-.2.2h-2.6v.4c.1.4.2.7.4 1.1.1.1.1.3.2.4.1-.1.2-.3.4-.5.2-.3.4-.6.5-.9l.9.6c.3.2.4.3.4.4 0 .1 0 .1-.1.1h-.6c-.3.2-.8.4-1.4.5.2.3.3.5.6.7.4.4.9.8 1.5 1.1v.2c-.3.1-.6.3-.7.5-.1.3-.2.4-.3.4s-.2-.1-.4-.4c-.2-.2-.5-.6-.7-1-.2-.3-.4-.8-.5-1.4V47v2.3c0 .6-.2 1-.6 1.2-.4.2-.6.3-.8.3-.1 0-.2-.1-.2-.4-.1-.4-.4-.7-1.1-.9v-.2c.4.1.8.1 1.1.1.2 0 .4-.1.4-.4v-1.7c-.3.3-.7.6-1 .9-.4.2-.6.4-.6.4v.4c0 .1 0 .2-.1.2s-.2-.2-.5-.5c0-.1-.1-.1-.1-.2 0 .2-.1.4-.2.6-.2.2-.3.2-.5.2-.1 0-.1 0-.2-.1 0-.1-.1-.3-.1-.7 0-.5-.1-1-.3-1.5l.2-.2zm1.5-1.3c.5.1.9.3 1.1.4.2.1.3.3.3.5s-.1.4-.3.6c-.1.1-.3.2-.5.2-.1 0-.2-.1-.3-.4-.1-.4-.3-.7-.5-1.1l.2-.2zm1.3-2.2h1.6l.3-1.3H36l-.4 1.3zM49.3 44.7h.3v.4h6.9c.1-.1.3-.2.4-.3.2-.2.3-.2.3-.2.1 0 .3.2.7.5.3.3.5.5.5.6s-.1.1-.3.2h-.4c-.3.2-.8.3-1.3.4l-.2-.1c.1-.3.2-.5.3-.8h-7c0 .4 0 .6-.1.8-.1.3-.2.5-.4.6.1.2-.1.2-.2.2-.3 0-.5-.1-.6-.2-.2-.1-.2-.3-.2-.5 0-.1.1-.2.4-.4.3-.1.5-.3.6-.5.1-.1.2-.4.3-.7zm-1.2-2.6c.4.1.9.1 1.6.1h.1v-.1-1.3c.3 0 .7.1 1 .2.5.1.7.2.7.3s-.1.2-.2.2c-.2.1-.2.1-.2.2 0 .2 0 .4-.1.5h.6v-.8c0-.4 0-.7-.1-.9.3 0 .7.1 1.2.2.4 0 .6.1.6.2s-.1.2-.3.3-.2.1-.2.3v.7h.8v-.7c0-.3 0-.7-.1-.9.3 0 .7.1 1.2.2.3 0 .5.1.6.1v-.1c.3 0 .7.1 1.2.1.3.1.5.1.5.2s-.1.2-.3.3c-.1 0-.2.1-.2.3v.5h.1l.4-.4.4-.4c.1 0 .3.1.6.4.3.3.4.5.4.5 0 .1-.1.2-.2.2h-1.8v.4c0 .3 0 .4.1.5s.2.1.4.1h.3s.1-.1.1-.2.1-.3.1-.6h.3c0 .3.1.5.1.6s.1.2.2.3c.2.1.3.2.3.2 0 .2-.1.3-.2.4-.1.1-.2.2-.5.2-.2.1-.5.1-.8.1-.4 0-.7 0-1-.1-.2 0-.4-.1-.4-.2-.2-.1-.3-.4-.3-.9v-.9h-.6v1.9c0 .1-.2.2-.5.3h-.3c-.2 0-.4-.1-.4-.2V44h-.8v.4c0 .1-.2.2-.5.3h-.3c-.2 0-.4-.1-.4-.2v-2.1h-.7c-.1.4-.2.8-.3 1-.2.3-.4.6-.8.9-.3.2-.7.4-1.3.6l-.1-.2c.3-.2.6-.4.8-.7.2-.2.4-.5.5-.9.1-.2.1-.5.1-.8H48l.1-.2zm1.6 4.2c.4.1.8.3 1.3.4h1.5v-.1c0-.4 0-.7-.1-1 .3 0 .8.1 1.3.2.5 0 .7.1.7.2s-.1.2-.4.3c-.2.1-.3.2-.3.3v.1h1.4l.3-.3c.2-.2.4-.3.5-.3s.4.1.7.4c.3.3.5.4.5.5s-.1.2-.3.3-.3.3-.3.4V49c0 .4-.2.6-.6.8-.3.2-.6.2-.8.2-.1 0-.1-.1-.2-.4-.1-.3-.4-.6-.9-.8v-.2c.4.1.8.1 1 .1.1 0 .2-.1.2-.4v-1.2h-1.6v3.4c0 .1-.2.3-.6.3h-.4c-.2 0-.4-.1-.4-.2V47H51v2.8c0 .1-.2.3-.5.3h-.4c-.2 0-.4-.1-.4-.3V47.2c.1-.2 0-.5 0-.9zm3-2.5h.8v-1.3h-.8v1.3zm2.5-1.6c0-.5 0-.8-.1-1.1-.1.1-.2.1-.3.2-.2.1-.2.1-.2.3v.7h.6v-.1zM68.6 42.2c.4.1.7.2 1 .4.3.1.5.3.5.4 0 .1-.1.1-.3.1-.2 0-.3 0-.3.1-.6.9-1.2 1.7-2 2.4.6 0 1.2-.1 1.7-.1l-.3-.9.1-.1c.5.3.8.6 1 .8.2.3.4.6.4.8s-.1.4-.2.5-.3.2-.4.2-.2 0-.3-.1c-.1 0-.1-.3-.2-.6v-.2l-.6.3v4.5c0 .1-.2.2-.6.3h-.4c-.2 0-.3-.1-.3-.3v-2.6c-.2 0-.2.1-.3.1-.1.5-.3 1-.4 1.3-.2.4-.4.7-.6 1.1l-.1-.1c.1-.5.2-1 .2-1.5s.1-1 .1-1.7c.3.1.7.2 1 .3.1 0 .1 0 .2.1v-1c-.2 0-.3.1-.5.1-.1 0-.1 0-.1.1v.1c0 .1-.1.1-.1.1-.1 0-.3-.2-.5-.7-.1-.1-.1-.3-.3-.6h1c.8-1.3 1.3-2.4 1.6-3.6zm-1.1-1.7c.4.1.7.3 1.1.4.3.1.5.3.5.4 0 .1-.1.1-.3.1-.2 0-.3 0-.3.1-.3.5-.6 1-1 1.4 0 0 .1 0 .1.1.2.2.3.4.3.7 0 .2-.1.3-.2.5-.1.1-.2.2-.4.2-.1 0-.3-.2-.4-.5-.1-.4-.3-.9-.7-1.3l.1-.1c.3.1.6.2.8.3.2-.8.3-1.5.4-2.3zm1.6 6.5c.5.4.9.7 1.1 1 .3.4.4.7.4 1 0 .2-.1.4-.2.5s-.3.2-.5.2c-.1 0-.2 0-.3-.1-.1-.1-.1-.3-.2-.8s-.2-1.1-.5-1.7l.2-.1zm1.4-3.5c.3 0 .7.1 1.2.2.4 0 .6.1.6.2s-.1.2-.3.3c-.2 0-.2.1-.2.3v2.4h.8v-4.4H70.5l-.2-.4c.4.1.9.1 1.6.1h.7V42c0-.7 0-1.2-.1-1.5.3 0 .8.1 1.3.2.4.1.5.1.5.2s-.1.2-.3.3c-.2 0-.2.1-.2.3v.8h.8s.2-.2.4-.5c.3-.3.4-.5.5-.5s.4.2.7.5c.3.3.5.5.5.6s-.1.2-.2.2h-2.6V47h.8v-2.4c0-.4 0-.7-.1-.9.3 0 .7.1 1.2.2.4 0 .6.1.6.2s-.1.2-.3.3c-.2 0-.2.1-.2.3v3c0 .1-.2.2-.5.3h-.3c-.2 0-.4-.1-.4-.2v-.5h-.8v1.6c0 .3.1.5.3.5.2.1.4.1.7.1.3 0 .6 0 .7-.1s.2-.2.2-.4c.1-.3.2-.6.3-1h.3c0 .5 0 .8.1 1 0 .2.1.4.2.5.2.1.3.3.3.4 0 .2-.1.3-.2.4-.1.1-.3.2-.6.3-.3.1-.7.1-1.1.1-.5 0-.9 0-1.2-.1-.3-.1-.5-.1-.6-.2-.2-.2-.3-.5-.3-1v-2.2h-.8v.7c0 .1-.2.2-.5.3h-.3c-.2 0-.4-.1-.4-.2v-3.4c-.4-.5-.4-.8-.5-1.1zM84.3 43c.3.1.8.1 1.4.1v-.7c0-.7 0-1.4-.1-1.9.3 0 .8.1 1.3.2.4 0 .5.1.5.2s-.1.2-.3.3c-.2 0-.2.1-.2.3V43c.1-.1.1-.2.3-.3.2-.3.4-.4.4-.4.1 0 .3.1.6.4.3.3.4.5.4.5 0 .1-.1.2-.2.2h-1.5v.8c.5.2.8.5 1.1.7.3.3.5.6.5.9 0 .3-.1.5-.3.6-.1.1-.2.1-.4.1-.1 0-.2 0-.3-.1-.1-.1-.2-.3-.2-.6-.1-.3-.2-.7-.4-1.1v5.8c0 .1-.2.3-.5.3h-.3c-.3 0-.4-.1-.4-.4.1-.7.1-1.3.1-1.9V46c-.2.5-.4.9-.6 1.2-.2.4-.5.7-.8 1l-.2-.1c.7-1.6 1.1-3.2 1.4-4.7h-1.1l-.2-.4zm3.3 6.9c.5.1.9.1 1.2.1v-4.6c0-.9 0-1.6-.1-2.1.4.1.9.2 1.4.5h.5c.1-.4.1-.9.1-1.3h-2.4l-.2-.5c.4.1.9.1 1.5.1h1.1c0-.6.1-1.1.1-1.7.3 0 .8.1 1.3.1.4.1.5.1.5.2 0 .2-.1.3-.3.4-.2.1-.3.2-.4.3 0 .2 0 .4-.1.6h1.1s.1-.2.4-.4c.3-.3.4-.5.4-.5.1 0 .3.2.6.5s.4.5.4.6-.1.2-.2.2h-2.8c-.1.4-.1.9-.2 1.3h.5l.4-.4c.2-.2.3-.3.4-.3s.3.1.7.4c.4.3.5.4.5.5s-.1.2-.2.3c-.2.1-.3.2-.3.3V50c.1-.2.1-.3.2-.5s.2-.4.3-.4c.1 0 .2.1.3.3.2.3.3.5.3.7 0 .1-.1.2-.2.2h-6.9l.1-.4zm2.4-4.6h2.4V44H90v1.3zm0 1.5h2.4v-1.2H90v1.2zm0 1.6h2.4v-1.3H90v1.3zm2.4 1.6v-1.3H90V50h2.4zM102.9 41.3c.4.1.8.2 1.1.2.3.1.4.2.4.3s-.1.2-.2.2-.2.1-.2.1c-.1.4-.1.7-.2 1h.7v-.7c0-.7 0-1.4-.1-1.9.3 0 .8.1 1.3.2.4 0 .5.1.5.2s-.1.2-.3.3c-.2 0-.2.1-.2.3v1.7h.1c.1-.2.2-.3.2-.5.1-.2.2-.4.3-.4.1 0 .2.1.4.3.1.2.2.4.3.5v-.2c.2-.7.4-1.5.5-2.4.4.1.8.2 1.1.3.3.1.5.2.5.3s-.1.2-.3.2c-.2 0-.3.1-.3.1-.2.5-.3.9-.5 1.3h2.9l.4-.4c.2-.1.3-.2.3-.2.1 0 .3.1.6.3.4.3.5.5.5.6s-.1.2-.3.3c-.1.1-.2.1-.2.2 0 1.9-.1 3.4-.2 4.5-.2 1-.4 1.7-.6 2-.2.2-.4.4-.6.5-.3.1-.5.2-.6.2s-.2-.2-.3-.5c-.1-.4-.5-.7-1.3-1V49c.7.1 1.1.2 1.4.2.2 0 .4-.2.5-.6.1-.4.2-1.1.2-2 .1-1.3.1-2.5.1-3.6h-.3c-.2 1-.4 2-.7 3-.2.8-.5 1.5-.8 2s-.7 1-1.2 1.4c-.6.5-1.2.9-1.9 1.2l-.1-.2c.6-.5 1.1-.9 1.5-1.4.3-.4.6-.9.9-1.5.2-.4.4-1 .6-1.8s.3-1.6.5-2.5h-.3c-.4 1.2-.7 2.2-1 2.8s-.6 1.1-1 1.6-.8.8-1.2 1.1v-.1c.4-.6.8-1.3 1.2-2.2.4-.9.7-2 .9-3.1h.1c-.1.2-.2.3-.3.4-.3.5-.8 1.1-1.3 1.7l-.2-.2c.3-.6.5-1.1.7-1.6h-1.3v2.3c.5-.1 1-.2 1.4-.4v.1c-.5.4-1 .7-1.5.9v4.1c0 .1-.2.3-.5.3h-.3c-.3 0-.4-.1-.4-.4.1-.7.1-1.3.1-1.9V47c-.2.1-.5.2-.7.3-.1 0-.2.1-.2.1v.2c0 .1-.1.1-.1.1-.1 0-.3-.3-.5-.8-.1-.1-.2-.4-.3-.7.7-.1 1.3-.2 1.9-.3v-2.5h-.8c-.1.3-.1.5-.2.7-.2.5-.5.9-.8 1.4l-.1-.1c.1-.4.1-.8.2-1.2 0-.3.1-.6.1-1.1v-1.8zM121.9 42.7c.3.6.4 1.1.4 1.5 0 .6-.1 1-.4 1.2-.2.2-.4.3-.8.3-.2 0-.3-.1-.4-.2-.1-.1-.1-.2-.1-.4 0-.1.2-.3.5-.7.3-.5.5-1 .5-1.7h.3zm.7-2.2c.4.1.7.1 1.1.2.5.1.7.2.7.3s-.1.2-.3.2c-.2.1-.3.1-.3.2v2.1c.1-.1.1-.2.2-.3.3-.5.4-1 .5-1.4.3.2.6.3.8.5.3.2.5.3.5.4 0 .1-.1.2-.2.2-.2 0-.3 0-.3.1-.2.3-.4.6-.7.8-.2.2-.5.4-.8.6 0 .8 0 1.3-.1 1.7 0 .3-.1.5-.1.8.5.3.9.6 1.1.9.3.3.4.6.4.8 0 .3-.1.5-.2.7s-.3.3-.5.3c-.1 0-.2 0-.3-.1-.1-.1-.1-.3-.2-.8-.1-.3-.2-.7-.4-1.1-.1.2-.1.5-.2.7-.2.5-.5 1-.8 1.4s-.8.9-1.4 1.4l-.1-.2c.5-.6.9-1.2 1.2-1.9.2-.5.4-1.2.5-2.1.1-.7.1-2.3.1-4.5-.2-.7-.2-1.2-.2-1.9zm3.6 6.9c.3.2.6.3.9.5s.5.3.5.4c0 .1-.1.2-.2.2-.2 0-.3 0-.3.1-.3.4-.6.8-.9 1.1-.4.4-1 .8-1.8 1.2l-.1-.2c.5-.4.9-.9 1.2-1.5.3-.6.6-1.2.7-1.8zm-1.3-3.9c.3 0 .6.1 1 .1v-1.3c0-.6 0-1.2-.1-1.6.3 0 .7.1 1.2.2.4.1.6.1.6.2s-.1.2-.3.3c-.2 0-.2.1-.2.3v2h1.1v-1.3c0-.6 0-1.2-.1-1.6.3 0 .7.1 1.2.2.4.1.6.1.6.2s-.1.2-.3.3c-.2 0-.2.1-.2.3v1.9c.1-.1.1-.2.3-.3.2-.3.4-.4.4-.4.1 0 .3.1.6.4.3.3.4.5.4.5 0 .1-.1.2-.2.2h-1.4v3c.1-.1.2-.2.3-.4.3-.3.4-.5.4-.5.1 0 .3.2.6.5s.4.5.4.6-.1.2-.2.2h-6.4l-.2-.4c.3.1.8.1 1.5.1v-3.1h-.9l-.1-.6zm3.3 3.4v-3.1h-1.1v3.1h1.1zm.1.8c.7.2 1.2.5 1.6.7.4.3.7.5.9.9.2.2.2.5.2.8 0 .2-.1.4-.2.5-.1.2-.3.3-.5.3-.1 0-.4-.4-.7-1.1-.4-.7-.8-1.3-1.4-1.8l.1-.3zM140.6 40.5c.4.1.8.1 1.2.2.5.1.8.2.8.3s-.1.2-.3.3-.3.1-.3.2V44c.1-.1.1-.2.2-.3.2-.4.3-.7.3-1 .3.2.6.3.8.4.3.2.5.3.5.4 0 .1-.1.2-.2.2-.2 0-.3 0-.3.1l-.5.5c-.2.1-.4.3-.7.4 0 .7 0 1.1-.1 1.4 0 .4-.1.7-.2 1 .4.2.7.4.9.7.3.3.5.7.5 1s-.1.5-.3.6c-.1.1-.3.2-.4.2-.1 0-.2 0-.3-.1s-.2-.3-.2-.6c-.1-.3-.2-.7-.3-1.1-.1.2-.1.3-.2.5-.2.5-.5 1-.9 1.4-.3.4-.8.9-1.4 1.4l-.1-.2c.5-.6.8-1.2 1.1-1.9.2-.5.4-1.2.5-2.1.1-.7.1-2.2.1-4.5-.1-.7-.2-1.2-.2-1.9zm-.7 2.5c.3.7.4 1.2.4 1.7s-.1.9-.3 1c-.2.2-.4.2-.6.2-.1 0-.3 0-.3-.1-.1-.1-.1-.2-.1-.3s.1-.3.4-.7c.2-.5.4-1 .4-1.7l.1-.1zm7-.2c.4.1.8.2 1.1.3.4.1.6.2.6.3s-.1.2-.4.2c-.2 0-.3.1-.3.1-.2.4-.4.7-.6.9-.2.2-.4.4-.7.6h.9l.4-.4c.3-.3.4-.5.4-.5.1 0 .3.2.6.5s.4.5.4.6-.1.2-.2.2h-6.6l-.2-.4c.4.1.9.1 1.6.1h2.3c.1-.3.3-.6.4-1 .1-.5.2-.9.3-1.5zm-1.8-2.3c.5.1 1 .1 1.4.2.3 0 .4.1.4.2 0 0-.1.1-.3.2-.2.1-.3.2-.3.3v.8h.9l.4-.4c.3-.3.4-.4.5-.4s.3.1.6.4c.3.3.4.5.4.5 0 .1-.1.2-.2.2H143l-.2-.4c.4.1.9.1 1.6.1h.8v-.8c0-.3-.1-.6-.1-.9zm-1.8 5.8c.5.1 1.1.3 1.6.6h1.8c.2-.2.3-.4.5-.5.1-.1.2-.2.3-.2s.3.1.7.3c.4.3.6.5.6.6s-.1.2-.3.3c-.1.1-.2.2-.2.3v2.7c0 .1-.2.3-.6.3h-.4c-.2 0-.3-.1-.3-.4v-.4h-2.5v.5c0 .1-.2.3-.6.3h-.4c-.2 0-.4-.1-.4-.4V48c.2-.6.2-1.1.2-1.7zm.7-3.4l1 .5c.3.2.4.4.4.6 0 .3-.1.6-.3.8-.1.1-.3.2-.5.2-.1 0-.2 0-.2-.1-.1-.1-.1-.2-.1-.5-.1-.4-.2-.9-.4-1.4l.1-.1zm.6 6.9h2.5v-2.5h-2.5v2.5zM11 23.5c-1.3 0-2.4-.1-3-.1-.1.1-.1.6 0 .6.7.1 1.1.1 1.4.2.6.2.8.4.8 1.1v2.2c0 .4-.2.8-.5.9-.3.2-.8.3-1.4.3-3.9 0-5.9-2.9-5.9-6.6 0-3.5 1.6-5.9 5-5.9 1.4 0 2.3.2 2.9.6s.9 1 1.1 2.6c.1.1.6 0 .7-.1 0-1 .2-2.6.4-3.4-1.3-.1-2.5-.5-4.3-.5-1.7 0-3 .3-4.2.8C1.6 17.3.2 19.5.2 22.3c0 4.6 2.7 7.1 7.7 7.1 1.9 0 4-.6 4.7-.8 0-.1.1-.4.1-.5-.5-.2-.5-.3-.5-.6v-2.4c0-.6.1-.9.5-1 .2-.1.5-.1.7-.2.1-.1.1-.6 0-.6-.5.1-1.2.2-2.4.2zm29.5 4.1c-.4.5-.7.7-1.6.7-.9 0-2.8 0-3.2-.1-.3-.1-.5-.4-.5-.8v-4.3c0-.1.1-.2.1-.2h3.2c.5 0 .6.3.7.6.1.3.1.4.2.9.1.1.6.1.7 0v-2c0-.8.1-1.6.2-2-.1-.1-.6-.1-.7-.1-.1.3-.2.6-.2.9-.1.3-.3.6-.7.6-.8.1-2.4.1-3.3 0-.1 0-.1-.1-.1-.2V17c0-.1.1-.4.3-.4h3.3c.7.1.9.3 1.1.8.1.3.2.7.2 1.3.1.1.6.1.7 0 .1-.9.2-2.3.4-3l-.1-.1c-.5.1-1.6.1-2.4.1h-4.3c-1.2 0-2.3-.1-2.9-.1-.1.1-.1.5 0 .6.5.1.9.1 1.1.2.5.1.6.3.6 1.1V27c-.1.8-.2 1-.7 1.2-.4.1-1 .2-1.6.2-.1.1-.1.6 0 .6.9 0 2-.1 3.4-.1 2.2 0 3.8.1 5.6.1 1.1 0 1.2-.1 1.3-.3.3-.6.8-2.3.9-3-.1-.1-.5-.3-.6-.2-.3.8-.8 1.7-1.1 2.1zm13.6 0c-.4.5-.7.7-1.6.7-.9 0-2.8 0-3.2-.1-.3-.1-.5-.4-.5-.8v-4.3c0-.1.1-.2.1-.2h3.2c.5 0 .6.3.7.6.1.3.1.4.2.9.1.1.6.1.7 0v-2c0-.8.1-1.6.2-2-.1-.1-.6-.1-.7-.1-.1.4-.2.7-.2.9-.1.3-.3.6-.7.6-.8.1-2.4.1-3.3 0-.1 0-.1-.1-.1-.2V17c0-.1.1-.4.3-.4h3.3c.7.1.9.3 1.1.8.1.3.2.7.2 1.3.1.1.6.1.7 0 .1-.9.2-2.3.4-3l-.1-.1c-.5.1-1.6.1-2.4.1H48c-1.2 0-2.3-.1-2.9-.1-.1.1-.1.5 0 .6.5.1.9.1 1.1.2.5.1.6.3.6 1.1V27c-.1.8-.2 1-.7 1.2-.4.1-1 .2-1.6.2-.1.1-.1.6 0 .6.9 0 2-.1 3.4-.1 2.2 0 3.8.1 5.6.1 1.1 0 1.2-.1 1.3-.3.3-.6.8-2.3.9-3-.1-.1-.5-.3-.6-.2-.2.8-.6 1.7-1 2.1zm17-11.7c-1.3 0-2.3-.1-2.9-.1-.1.1-.1.5 0 .6.6.1 1.1.2 1.4.3.6.2.8.5.8 1.1.1 1.6.1 5.6.1 8.5h-.1c-1-1.2-5.5-6.6-7.7-9.4-.6-.7-.7-.9-.8-1.2h-1c-1.1 0-2.2-.1-2.7-.1-.1.1-.1.5 0 .6.8.1 1.3.2 1.7.5.5.3.6.7.6 1.1 0 4.5-.1 8-.2 9.2 0 .8-.3 1.1-.8 1.3-.3.1-.7.2-1.1.2-.1.1-.1.6 0 .6.5 0 1.3-.1 2.6-.1 1.2 0 2.2.1 2.7.1.1-.1.1-.5 0-.6-.5-.1-1-.1-1.3-.2-.6-.1-.8-.4-.9-1.3-.1-1.2-.1-6.3 0-8.5h.1c1.3 1.6 7.2 9 8.4 10.7h1.5v-3c.1-4.1 0-6.8.2-8.5 0-.6.2-1 .7-1.2.3-.1.6-.2.9-.2.1-.1.1-.5 0-.6-.2.1-1.5.2-2.2.2zm29.6-14.8C100.2.7 86.8 2.9 84.5 22 83.4 15.3 79.7 6.6 69.3.1c-2.2-1.4 7 8.4 11.6 17.5 3.7 7.4 2.8 14.5 3.1 14.5.3 0 .9-2.2.8-5.5C88 11.3 101.3 1.5 100.7 1.1zm3 20.6s0-.1 0 0c1.3-.6 2.1-1.6 2.1-2.8 0-2.5-2.3-3-3.8-3h-3.5c-1.3 0-2-.1-2.5-.1-.1 0-.1.5 0 .6.4 0 .9.1 1.3.2s.6.3.6.9v9.8c-.1.8-.2 1-.7 1.1-.4.1-1 .1-1.4.2-.1.1-.1.6 0 .6 1.4 0 3.9.1 4.9.1 1.1 0 2.4-.1 3.3-.5 1.6-.7 2.7-1.9 2.7-3.7 0-2-1.3-3-3-3.4zM99.8 17c0-.1.1-.3.2-.3.2 0 .5-.1.8-.1 2 0 3.2.9 3.2 2.7 0 .8-.3 1.6-1 2-.3.2-.7.3-1.7.3H100l-.1-.1c-.2-1.6-.2-3.9-.1-4.5zm2.1 11.5c-.5 0-1.3-.1-1.7-.3-.3-.2-.5-.5-.5-.8-.1-.9-.1-3.5-.1-4.9l.1-.1h1c2.4 0 3.9 1.1 3.9 3.2.1 1.9-1 2.9-2.7 2.9zm18.8-1.7c-.8-1.8-3.1-8.6-3.6-9.9-.1-.4-.3-.8-.3-1.1h-1.4c0 .3-.2.8-.4 1.2-.5 1.4-2.5 6.9-3.6 9.5-.7 1.7-1 1.8-2.5 2-.1.1-.1.5 0 .6.4 0 1.1-.1 2.3-.1 1.2 0 2.3.1 2.8.1.1-.1.1-.5 0-.6-.4 0-.8-.1-1-.2-.7-.2-.7-.4-.7-.8 0-.5.7-2.3 1.2-3.5 0-.1.1-.2.2-.2h3.8s.2.1.2.2c.4 1 1 2.8 1.3 3.7.1.2 0 .4-.2.5-.3.1-.7.2-1.2.2-.1.1 0 .5 0 .6.5 0 1.8-.1 2.8-.1s2.1 0 2.6.1c.1-.1.1-.6 0-.6-1.5 0-1.7-.1-2.3-1.6zm-3.6-3.9H114c-.1 0-.1-.1-.1-.1.4-1.1 1.2-3.6 1.6-4.7h.1c.3.9 1.2 3.3 1.6 4.7 0 .1 0 .1-.1.1zm12.3 5.5c-.6-.2-.7-.4-.7-1.4v-4.9-4.4c0-.7.1-1 .6-1.1.2-.1.7-.2 1.1-.2.1-.1.1-.5 0-.6-.6 0-1.5.1-2.6.1-1.4 0-2.2-.1-2.7-.1-.1.1-.1.5 0 .6.4 0 .8.1 1.1.2.6.2.6.4.7 1v9.5c0 .8-.1 1.1-.7 1.3-.3.1-.7.1-1.2.2-.1.1-.1.6 0 .6.3 0 1.7-.1 2.7-.1 1.1 0 2.3.1 3 .1.1-.1.1-.5 0-.6-.6-.1-1-.1-1.3-.2zm7.8 0c-.3-.1-.5-.2-.9-.5-1.4-1.1-4.6-4.7-5.4-5.9v-.1c1-1 2.6-2.7 3.9-4.1.9-1 1.4-1.2 2.6-1.4.1-.1.1-.5 0-.6-.6 0-1.2.1-2.6.1-1.1 0-1.8-.1-2.5-.1-.1.1-.1.5 0 .6.5.1.9.2 1.1.2.3.1.4.2.4.4s-.1.5-.4.9c-1.2 1.6-3.5 4-4.5 4.4 0 0-.1.3 0 .3.1.1.4.3.4.3 1.2 1.5 3.8 4.6 4.8 5.5.3.3.6.5.9.6.6.2 2.8.2 3.6.1.1-.1.1-.5.1-.6-.6.1-1 0-1.5-.1zm12.4-.8c-.4.5-.7.7-1.6.7-.9 0-2.8 0-3.2-.1-.3-.1-.5-.4-.5-.8v-4.3c0-.1.1-.2.1-.2h3.2c.5 0 .6.3.7.6.1.3.1.4.2.9.1.1.6.1.7 0v-2c0-.8.1-1.6.2-2-.1-.1-.6-.1-.7-.1-.1.3-.2.6-.2.9-.1.3-.3.6-.7.6-.8.1-2.4.1-3.3 0-.1 0-.1-.1-.1-.2V17c0-.1.1-.4.3-.4h3.3c.7.1.9.3 1.1.8.1.3.2.7.2 1.3.1.1.6.1.7 0 .1-.9.2-2.3.4-3l-.1-.1c-.5.1-1.6.1-2.4.1h-4.3c-1.2 0-2.3-.1-2.9-.1-.1.1-.1.5 0 .6.5.1.9.1 1.1.2.5.1.6.3.6 1.1V27c-.1.8-.2 1-.7 1.2-.4.1-1 .2-1.6.2-.1.1-.1.6 0 .6.9 0 2-.1 3.4-.1 2.2 0 3.8.1 5.6.1 1.1 0 1.2-.1 1.3-.3.3-.6.8-2.3.9-3-.1-.1-.5-.3-.6-.2-.3.8-.8 1.7-1.1 2.1zm15.5-.2c-1.1-1.1-2.8-3.5-3.5-4.7v-.2c1.3-.6 2.5-1.7 2.5-3.5s-1.3-3.3-3.9-3.3h-3.6c-.7 0-2-.1-2.5-.1-.1 0-.1.5 0 .6.4 0 .8.1 1.2.2.5.1.7.4.7 1V27c0 .8-.2 1.1-.7 1.2-.3.1-.6.1-1.1.2-.1.1-.1.5 0 .6.4 0 1.3-.1 2.7-.1s2.5.1 2.9.1c.1-.1.2-.5 0-.6-.5-.1-.9-.1-1.2-.2-.5-.1-.6-.3-.7-1v-3.9s0-.1.1-.1h1.5c.2 0 .4.1.5.3.8 1.2 2.1 3.3 3 4.3.4.5.7.7 1 .9.8.4 2.5.5 3.5.4.1 0 .2-.5.1-.6-1.3 0-1.7-.1-2.5-1.1zm-4.4-5.1c-.4.2-1.3.2-2.8.2-.1 0-.1-.1-.1-.1V17c0-.1.1-.3.2-.3.2-.1.6-.1.8-.1 2.3 0 3.3 1.2 3.3 3.2 0 1.4-.7 2.2-1.4 2.5zm19.3-6.5c-.7 0-1.2.1-2.3.1-.8 0-1.7 0-2.4-.1-.1 0-.2.5-.1.6.5.1.7.1 1 .2.6.1.6.4.4.8-.4 1-1.9 3.7-2.7 5h-.1c-.5-.8-2.2-4-2.7-5.2-.1-.3-.1-.5.2-.6.1 0 .5-.1.8-.2.1-.1.1-.5 0-.6-.3 0-1.7.1-2.4.1-1 0-2.1-.1-2.7-.1-.1.1-.1.5 0 .6.5.1.7.1 1 .2.8.2 1 .4 1.8 1.8.9 1.6 2.1 3.9 2.6 5 .1.3.2.7.2 1v2.8c0 .7-.2 1-.7 1.2-.4.1-.9.2-1.5.2-.1.1-.1.5 0 .6.6 0 1.6-.1 3.1-.1 1.3 0 2.4.1 3 .1.1-.1.1-.5.1-.6-.6-.1-1-.1-1.3-.2-.6-.1-.7-.5-.7-1.4v-3c0-.2.1-.6.2-.8.5-1 2.1-3.8 3-5.2.6-.9.9-1.2 1.5-1.4l.9-.2c-.1 0-.1-.5-.2-.6zM27.3 27.4c-1.1-1.1-2.8-3.5-3.5-4.7v-.2c1.3-.6 2.5-1.7 2.5-3.5s-1.3-3.3-3.9-3.3h-3.6c-.7 0-2-.1-2.5-.1-.1 0-.1.5 0 .6.4 0 .8.1 1.2.2.5.1.7.4.7 1V27c0 .8-.2 1.1-.7 1.2-.3.1-.6.1-1.1.2-.1.1-.1.5 0 .6.4 0 1.3-.1 2.7-.1 1.4 0 2.5.1 2.9.1.1-.1.2-.5 0-.6-.5-.1-.9-.1-1.2-.2-.5-.1-.6-.3-.7-1v-3.9s0-.1.1-.1h1.5c.2 0 .4.1.5.3.8 1.2 2.1 3.3 3 4.3.4.5.7.7 1 .9.8.4 2.5.5 3.5.4.1 0 .2-.5.1-.6-1.3 0-1.6-.1-2.5-1.1zM23 22.3c-.4.2-1.3.2-2.8.2-.1 0-.1-.1-.1-.1V17c0-.1.1-.3.2-.3.2-.1.6-.1.8-.1 2.3 0 3.3 1.2 3.3 3.2 0 1.4-.7 2.2-1.4 2.5z"/></svg>