<?xml version="1.0" encoding="utf-8"?>
<!-- Generator: Adobe Illustrator 22.0.1, SVG Export Plug-In . SVG Version: 6.00 Build 0)  -->
<svg version="1.2" baseProfile="tiny" id="圖層_1"
	 xmlns="http://www.w3.org/2000/svg" xmlns:xlink="http://www.w3.org/1999/xlink" x="0px" y="0px" viewBox="0 0 180.2 51"
	 xml:space="preserve">
<g>
	<g>
		<g>
			<path fill="#009D95" d="M32.4,42.3c0.4,0.1,0.7,0.2,1,0.4c0.3,0.1,0.5,0.3,0.5,0.4c0,0.1-0.1,0.1-0.3,0.1s-0.3,0-0.3,0.1
				c-0.6,0.8-1.2,1.4-1.9,2.1c0.5,0,0.9,0,1.4,0c-0.1-0.2-0.1-0.4-0.2-0.6l0.1-0.1c0.5,0.3,0.8,0.5,1,0.7c0.2,0.3,0.3,0.5,0.3,0.7
				s0,0.4-0.1,0.5s-0.3,0.2-0.4,0.2c-0.1,0-0.2,0-0.3-0.1c-0.1,0-0.1-0.2-0.2-0.6c0-0.1,0-0.3-0.1-0.4c-0.2,0.1-0.4,0.2-0.5,0.3v2.9
				c0,0.7,0,1.3,0,1.7c0,0.1-0.2,0.2-0.6,0.3c-0.2,0-0.3,0-0.4,0c-0.2,0-0.3-0.1-0.3-0.3c0-0.4,0-1,0-1.7v-1H31
				c-0.2,0-0.3,0.1-0.3,0.1c-0.1,0.5-0.3,1-0.4,1.3c-0.2,0.3-0.4,0.7-0.6,1.1l-0.1-0.1c0.1-0.5,0.2-1,0.2-1.4c0-0.5,0.1-1,0.1-1.7
				c0.3,0.1,0.7,0.2,1,0.3c0.1,0,0.3,0.1,0.3,0.1v-1.3c-0.2,0.1-0.4,0.1-0.6,0.1c-0.1,0-0.1,0-0.1,0.1v0.1c0,0.1-0.1,0.1-0.1,0.1
				c-0.1,0-0.3-0.2-0.5-0.7c-0.1-0.1-0.1-0.4-0.3-0.7c0.4,0,0.8,0,1.2,0C31.6,44.4,32.1,43.4,32.4,42.3z M31.4,40.5
				c0.4,0.1,0.7,0.2,1,0.4c0.3,0.1,0.5,0.3,0.5,0.4c0,0.1-0.1,0.1-0.3,0.1s-0.3,0-0.3,0.1c-0.4,0.5-0.8,1-1.4,1.5
				c0.1,0.1,0.2,0.1,0.2,0.1c0.2,0.2,0.3,0.4,0.3,0.7c0,0.2-0.1,0.3-0.2,0.5c-0.1,0.1-0.2,0.1-0.4,0.1c-0.2,0-0.3-0.1-0.4-0.4
				c-0.1-0.4-0.4-0.8-0.8-1.2l0.1-0.1c0.3,0.1,0.5,0.2,0.7,0.2C31,42,31.2,41.3,31.4,40.5z M32.8,46.8c0.4,0.3,0.7,0.6,0.8,0.8
				c0.1,0.1,0.1,0.2,0.1,0.3c0.7-0.2,1.5-0.5,2.4-1v-2H35c-0.6,0-1.1,0-1.4,0l-0.2-0.4c0.4,0.1,0.9,0.1,1.5,0.1h1.8l0.2-1h-1.6
				l-0.1,0.3c0,0.1-0.2,0.2-0.7,0.2c-0.4,0-0.6-0.1-0.6-0.2c0.7-1.5,1-2.7,1-3.3c0.5,0.1,0.9,0.2,1.2,0.3s0.5,0.2,0.5,0.3
				s-0.1,0.2-0.3,0.2c-0.2,0.1-0.3,0.1-0.3,0.2v0.1h1.2c0.2-0.1,0.3-0.3,0.4-0.4C37.8,41.1,38,41,38,41c0.1,0,0.4,0.1,0.7,0.4
				c0.3,0.3,0.5,0.5,0.5,0.6s-0.1,0.2-0.4,0.2c-0.2,0.1-0.3,0.1-0.3,0.3L38,44.6h0.2c0,0,0.1-0.1,0.4-0.4c0.3-0.3,0.4-0.4,0.4-0.4
				c0.1,0,0.3,0.1,0.6,0.4c0.3,0.3,0.4,0.5,0.4,0.5c0,0.1-0.1,0.2-0.2,0.2h-2.6v0.4c0.1,0.4,0.2,0.7,0.4,1.1
				c0.1,0.1,0.1,0.3,0.2,0.4c0.1-0.1,0.2-0.3,0.4-0.5c0.2-0.3,0.4-0.6,0.5-0.9c0.3,0.2,0.6,0.4,0.9,0.6c0.3,0.2,0.4,0.3,0.4,0.4
				c0,0.1,0,0.1-0.1,0.1h-0.6c-0.3,0.2-0.8,0.4-1.4,0.5c0.2,0.3,0.3,0.5,0.6,0.7c0.4,0.4,0.9,0.8,1.5,1.1V49
				c-0.3,0.1-0.6,0.3-0.7,0.5c-0.1,0.3-0.2,0.4-0.3,0.4s-0.2-0.1-0.4-0.4c-0.2-0.2-0.5-0.6-0.7-1c-0.2-0.3-0.4-0.8-0.5-1.4V47v2.3
				c0,0.6-0.2,1-0.6,1.2c-0.4,0.2-0.6,0.3-0.8,0.3c-0.1,0-0.2-0.1-0.2-0.4c-0.1-0.4-0.4-0.7-1.1-0.9v-0.2c0.4,0.1,0.8,0.1,1.1,0.1
				c0.2,0,0.4-0.1,0.4-0.4v-1.7c-0.3,0.3-0.7,0.6-1,0.9c-0.4,0.2-0.6,0.4-0.6,0.4V49c0,0.1,0,0.2-0.1,0.2S34.3,49,34,48.7
				c0-0.1-0.1-0.1-0.1-0.2c0,0.2-0.1,0.4-0.2,0.6c-0.2,0.2-0.3,0.2-0.5,0.2c-0.1,0-0.1,0-0.2-0.1c0-0.1-0.1-0.3-0.1-0.7
				c0-0.5-0.1-1-0.3-1.5L32.8,46.8z M34.3,45.5c0.5,0.1,0.9,0.3,1.1,0.4c0.2,0.1,0.3,0.3,0.3,0.5s-0.1,0.4-0.3,0.6
				c-0.1,0.1-0.3,0.2-0.5,0.2c-0.1,0-0.2-0.1-0.3-0.4c-0.1-0.4-0.3-0.7-0.5-1.1L34.3,45.5z M35.6,43.3h1.6l0.3-1.3H36L35.6,43.3z"/>
			<path fill="#009D95" d="M49.3,44.7h0.3c0,0.1,0,0.3,0,0.4h6.9c0.1-0.1,0.3-0.2,0.4-0.3c0.2-0.2,0.3-0.2,0.3-0.2
				c0.1,0,0.3,0.2,0.7,0.5c0.3,0.3,0.5,0.5,0.5,0.6s-0.1,0.1-0.3,0.2c-0.2,0-0.3,0-0.4,0c-0.3,0.2-0.8,0.3-1.3,0.4l-0.2-0.1
				c0.1-0.3,0.2-0.5,0.3-0.8h-7c0,0.4,0,0.6-0.1,0.8c-0.1,0.3-0.2,0.5-0.4,0.6c0.1,0.2-0.1,0.2-0.2,0.2c-0.3,0-0.5-0.1-0.6-0.2
				C48,46.7,48,46.5,48,46.3c0-0.1,0.1-0.2,0.4-0.4c0.3-0.1,0.5-0.3,0.6-0.5C49.1,45.3,49.2,45,49.3,44.7z M48.1,42.1
				c0.4,0.1,0.9,0.1,1.6,0.1h0.1v-0.1c0-0.5,0-1,0-1.3c0.3,0,0.7,0.1,1,0.2c0.5,0.1,0.7,0.2,0.7,0.3s-0.1,0.2-0.2,0.2
				c-0.2,0.1-0.2,0.1-0.2,0.2c0,0.2,0,0.4-0.1,0.5h0.6v-0.8c0-0.4,0-0.7-0.1-0.9c0.3,0,0.7,0.1,1.2,0.2c0.4,0,0.6,0.1,0.6,0.2
				c0,0.1-0.1,0.2-0.3,0.3s-0.2,0.1-0.2,0.3v0.7h0.8v-0.7c0-0.3,0-0.7-0.1-0.9c0.3,0,0.7,0.1,1.2,0.2c0.3,0,0.5,0.1,0.6,0.1
				c0,0,0,0,0-0.1c0.3,0,0.7,0.1,1.2,0.1C56.8,41,57,41,57,41.1s-0.1,0.2-0.3,0.3c-0.1,0-0.2,0.1-0.2,0.3v0.5h0.1
				c0,0,0.1-0.1,0.4-0.4c0.3-0.3,0.4-0.4,0.4-0.4c0.1,0,0.3,0.1,0.6,0.4c0.3,0.3,0.4,0.5,0.4,0.5c0,0.1-0.1,0.2-0.2,0.2h-1.8v0.4
				c0,0.3,0,0.4,0.1,0.5s0.2,0.1,0.4,0.1s0.3,0,0.3,0s0.1-0.1,0.1-0.2c0-0.1,0.1-0.3,0.1-0.6h0.3c0,0.3,0.1,0.5,0.1,0.6
				s0.1,0.2,0.2,0.3c0.2,0.1,0.3,0.2,0.3,0.2c0,0.2-0.1,0.3-0.2,0.4c-0.1,0.1-0.2,0.2-0.5,0.2c-0.2,0.1-0.5,0.1-0.8,0.1
				c-0.4,0-0.7,0-1-0.1c-0.2,0-0.4-0.1-0.4-0.2c-0.2-0.1-0.3-0.4-0.3-0.9v-0.9h-0.6v1.9c0,0.1-0.2,0.2-0.5,0.3c-0.2,0-0.3,0-0.3,0
				c-0.2,0-0.4-0.1-0.4-0.2c0-0.1,0-0.3,0-0.4h-0.8v0.4c0,0.1-0.2,0.2-0.5,0.3c-0.2,0-0.3,0-0.3,0c-0.2,0-0.4-0.1-0.4-0.2
				c0-0.2,0-0.3,0-0.4v-1.7h-0.7c-0.1,0.4-0.2,0.8-0.3,1c-0.2,0.3-0.4,0.6-0.8,0.9c-0.3,0.2-0.7,0.4-1.3,0.6l-0.1-0.2
				c0.3-0.2,0.6-0.4,0.8-0.7c0.2-0.2,0.4-0.5,0.5-0.9c0.1-0.2,0.1-0.5,0.1-0.8h-0.1c-0.6,0-1.1,0-1.4,0L48.1,42.1z M49.7,46.3
				c0.4,0.1,0.8,0.3,1.3,0.4h1.5v-0.1c0-0.4,0-0.7-0.1-1c0.3,0,0.8,0.1,1.3,0.2c0.5,0,0.7,0.1,0.7,0.2c0,0.1-0.1,0.2-0.4,0.3
				c-0.2,0.1-0.3,0.2-0.3,0.3v0.1h1.4c0.1-0.1,0.2-0.2,0.3-0.3c0.2-0.2,0.4-0.3,0.5-0.3s0.4,0.1,0.7,0.4c0.3,0.3,0.5,0.4,0.5,0.5
				s-0.1,0.2-0.3,0.3s-0.3,0.3-0.3,0.4V49c0,0.4-0.2,0.6-0.6,0.8C55.6,50,55.3,50,55.1,50c-0.1,0-0.1-0.1-0.2-0.4
				c-0.1-0.3-0.4-0.6-0.9-0.8v-0.2c0.4,0.1,0.8,0.1,1,0.1c0.1,0,0.2-0.1,0.2-0.4v-1.2h-1.6v3.4c0,0.1-0.2,0.3-0.6,0.3
				c-0.2,0-0.3,0-0.4,0c-0.2,0-0.4-0.1-0.4-0.2c0-0.2,0-0.4,0-0.5V47H51v2.8c0,0.1-0.2,0.3-0.5,0.3c-0.2,0-0.3,0-0.4,0
				c-0.2,0-0.4-0.1-0.4-0.3s0-0.5,0-0.7v-1.9C49.8,47,49.7,46.7,49.7,46.3z M52.7,43.8h0.8v-1.3h-0.8V43.8z M55.2,42.2
				c0-0.5,0-0.8-0.1-1.1c-0.1,0.1-0.2,0.1-0.3,0.2c-0.2,0.1-0.2,0.1-0.2,0.3v0.7h0.6V42.2z"/>
			<path fill="#009D95" d="M68.6,42.2c0.4,0.1,0.7,0.2,1,0.4c0.3,0.1,0.5,0.3,0.5,0.4c0,0.1-0.1,0.1-0.3,0.1c-0.2,0-0.3,0-0.3,0.1
				c-0.6,0.9-1.2,1.7-2,2.4c0.6,0,1.2-0.1,1.7-0.1c-0.1-0.3-0.2-0.6-0.3-0.9l0.1-0.1c0.5,0.3,0.8,0.6,1,0.8c0.2,0.3,0.4,0.6,0.4,0.8
				s-0.1,0.4-0.2,0.5s-0.3,0.2-0.4,0.2s-0.2,0-0.3-0.1c-0.1,0-0.1-0.3-0.2-0.6c0-0.1,0-0.1,0-0.2c-0.2,0.1-0.4,0.2-0.6,0.3V49
				c0,0.7,0,1.3,0,1.7c0,0.1-0.2,0.2-0.6,0.3c-0.2,0-0.3,0-0.4,0c-0.2,0-0.3-0.1-0.3-0.3c0-0.4,0-1,0-1.7v-0.9
				c-0.2,0-0.2,0.1-0.3,0.1c-0.1,0.5-0.3,1-0.4,1.3c-0.2,0.4-0.4,0.7-0.6,1.1L66,50.5c0.1-0.5,0.2-1,0.2-1.5s0.1-1,0.1-1.7
				c0.3,0.1,0.7,0.2,1,0.3c0.1,0,0.1,0,0.2,0.1v-1c-0.2,0-0.3,0.1-0.5,0.1c-0.1,0-0.1,0-0.1,0.1V47c0,0.1-0.1,0.1-0.1,0.1
				c-0.1,0-0.3-0.2-0.5-0.7c-0.1-0.1-0.1-0.3-0.3-0.6c0.4,0,0.7,0,1,0C67.8,44.5,68.3,43.4,68.6,42.2z M67.5,40.5
				c0.4,0.1,0.7,0.3,1.1,0.4c0.3,0.1,0.5,0.3,0.5,0.4c0,0.1-0.1,0.1-0.3,0.1c-0.2,0-0.3,0-0.3,0.1c-0.3,0.5-0.6,1-1,1.4
				c0,0,0.1,0,0.1,0.1c0.2,0.2,0.3,0.4,0.3,0.7c0,0.2-0.1,0.3-0.2,0.5c-0.1,0.1-0.2,0.2-0.4,0.2c-0.1,0-0.3-0.2-0.4-0.5
				c-0.1-0.4-0.3-0.9-0.7-1.3l0.1-0.1c0.3,0.1,0.6,0.2,0.8,0.3C67.3,42,67.4,41.3,67.5,40.5z M69.1,47c0.5,0.4,0.9,0.7,1.1,1
				c0.3,0.4,0.4,0.7,0.4,1c0,0.2-0.1,0.4-0.2,0.5s-0.3,0.2-0.5,0.2c-0.1,0-0.2,0-0.3-0.1c-0.1-0.1-0.1-0.3-0.2-0.8s-0.2-1.1-0.5-1.7
				L69.1,47z M70.5,43.5c0.3,0,0.7,0.1,1.2,0.2c0.4,0,0.6,0.1,0.6,0.2c0,0.1-0.1,0.2-0.3,0.3c-0.2,0-0.2,0.1-0.2,0.3v2.4h0.8v-4.4
				h-0.7c-0.7,0-1.1,0-1.4,0l-0.2-0.4c0.4,0.1,0.9,0.1,1.6,0.1h0.7V42c0-0.7,0-1.2-0.1-1.5c0.3,0,0.8,0.1,1.3,0.2
				c0.4,0.1,0.5,0.1,0.5,0.2c0,0.1-0.1,0.2-0.3,0.3c-0.2,0-0.2,0.1-0.2,0.3v0.8h0.8c0,0,0.2-0.2,0.4-0.5c0.3-0.3,0.4-0.5,0.5-0.5
				s0.4,0.2,0.7,0.5c0.3,0.3,0.5,0.5,0.5,0.6s-0.1,0.2-0.2,0.2h-2.6V47h0.8v-2.4c0-0.4,0-0.7-0.1-0.9c0.3,0,0.7,0.1,1.2,0.2
				c0.4,0,0.6,0.1,0.6,0.2c0,0.1-0.1,0.2-0.3,0.3c-0.2,0-0.2,0.1-0.2,0.3v3c0,0.1-0.2,0.2-0.5,0.3c-0.2,0-0.3,0-0.3,0
				c-0.2,0-0.4-0.1-0.4-0.2c0-0.2,0-0.4,0-0.5h-0.8v1.6c0,0.3,0.1,0.5,0.3,0.5c0.2,0.1,0.4,0.1,0.7,0.1c0.3,0,0.6,0,0.7-0.1
				s0.2-0.2,0.2-0.4c0.1-0.3,0.2-0.6,0.3-1h0.3c0,0.5,0,0.8,0.1,1c0,0.2,0.1,0.4,0.2,0.5c0.2,0.1,0.3,0.3,0.3,0.4
				c0,0.2-0.1,0.3-0.2,0.4c-0.1,0.1-0.3,0.2-0.6,0.3c-0.3,0.1-0.7,0.1-1.1,0.1c-0.5,0-0.9,0-1.2-0.1c-0.3-0.1-0.5-0.1-0.6-0.2
				c-0.2-0.2-0.3-0.5-0.3-1v-2.2h-0.8v0.7c0,0.1-0.2,0.2-0.5,0.3c-0.2,0-0.3,0-0.3,0c-0.2,0-0.4-0.1-0.4-0.2c0-0.2,0-0.3,0-0.4v-3
				C70.6,44.1,70.6,43.8,70.5,43.5z"/>
			<path fill="#009D95" d="M84.3,43c0.3,0.1,0.8,0.1,1.4,0.1v-0.7c0-0.7,0-1.4-0.1-1.9c0.3,0,0.8,0.1,1.3,0.2c0.4,0,0.5,0.1,0.5,0.2
				c0,0.1-0.1,0.2-0.3,0.3c-0.2,0-0.2,0.1-0.2,0.3V43c0.1-0.1,0.1-0.2,0.3-0.3c0.2-0.3,0.4-0.4,0.4-0.4c0.1,0,0.3,0.1,0.6,0.4
				c0.3,0.3,0.4,0.5,0.4,0.5c0,0.1-0.1,0.2-0.2,0.2h-1.5v0.8c0.5,0.2,0.8,0.5,1.1,0.7c0.3,0.3,0.5,0.6,0.5,0.9
				c0,0.3-0.1,0.5-0.3,0.6c-0.1,0.1-0.2,0.1-0.4,0.1c-0.1,0-0.2,0-0.3-0.1c-0.1-0.1-0.2-0.3-0.2-0.6c-0.1-0.3-0.2-0.7-0.4-1.1v5.8
				c0,0.1-0.2,0.3-0.5,0.3c-0.2,0-0.3,0-0.3,0c-0.3,0-0.4-0.1-0.4-0.4c0.1-0.7,0.1-1.3,0.1-1.9V46c-0.2,0.5-0.4,0.9-0.6,1.2
				c-0.2,0.4-0.5,0.7-0.8,1l-0.2-0.1c0.7-1.6,1.1-3.2,1.4-4.7c-0.5,0-0.9,0-1.1,0L84.3,43z M87.6,49.9c0.5,0.1,0.9,0.1,1.2,0.1v-4.6
				c0-0.9,0-1.6-0.1-2.1c0.4,0.1,0.9,0.2,1.4,0.5h0.5c0.1-0.4,0.1-0.9,0.1-1.3h-1c-0.6,0-1.1,0-1.4,0L88.1,42
				c0.4,0.1,0.9,0.1,1.5,0.1h1.1c0-0.6,0.1-1.1,0.1-1.7c0.3,0,0.8,0.1,1.3,0.1c0.4,0.1,0.5,0.1,0.5,0.2c0,0.2-0.1,0.3-0.3,0.4
				c-0.2,0.1-0.3,0.2-0.4,0.3c0,0.2,0,0.4-0.1,0.6h1.1c0,0,0.1-0.2,0.4-0.4c0.3-0.3,0.4-0.5,0.4-0.5c0.1,0,0.3,0.2,0.6,0.5
				c0.3,0.3,0.4,0.5,0.4,0.6s-0.1,0.2-0.2,0.2h-2.8c-0.1,0.4-0.1,0.9-0.2,1.3H92c0.1-0.1,0.3-0.3,0.4-0.4c0.2-0.2,0.3-0.3,0.4-0.3
				s0.3,0.1,0.7,0.4c0.4,0.3,0.5,0.4,0.5,0.5s-0.1,0.2-0.2,0.3c-0.2,0.1-0.3,0.2-0.3,0.3V50l0,0c0.1-0.2,0.1-0.3,0.2-0.5
				s0.2-0.4,0.3-0.4c0.1,0,0.2,0.1,0.3,0.3c0.2,0.3,0.3,0.5,0.3,0.7c0,0.1-0.1,0.2-0.2,0.2h-5.8c-0.3,0-0.7,0-1.1,0L87.6,49.9z
				 M90,45.3h2.4V44H90V45.3z M90,46.8h2.4v-1.2H90V46.8z M90,48.4h2.4v-1.3H90V48.4z M92.4,50v-1.3H90V50H92.4z"/>
			<path fill="#009D95" d="M102.9,41.3c0.4,0.1,0.8,0.2,1.1,0.2c0.3,0.1,0.4,0.2,0.4,0.3s-0.1,0.2-0.2,0.2s-0.2,0.1-0.2,0.1
				c-0.1,0.4-0.1,0.7-0.2,1h0.7v-0.7c0-0.7,0-1.4-0.1-1.9c0.3,0,0.8,0.1,1.3,0.2c0.4,0,0.5,0.1,0.5,0.2c0,0.1-0.1,0.2-0.3,0.3
				c-0.2,0-0.2,0.1-0.2,0.3v1.7h0.1c0.1-0.2,0.2-0.3,0.2-0.5c0.1-0.2,0.2-0.4,0.3-0.4c0.1,0,0.2,0.1,0.4,0.3
				c0.1,0.2,0.2,0.4,0.3,0.5c0-0.1,0-0.1,0-0.2c0.2-0.7,0.4-1.5,0.5-2.4c0.4,0.1,0.8,0.2,1.1,0.3c0.3,0.1,0.5,0.2,0.5,0.3
				s-0.1,0.2-0.3,0.2c-0.2,0-0.3,0.1-0.3,0.1c-0.2,0.5-0.3,0.9-0.5,1.3h2.9c0.2-0.2,0.3-0.3,0.4-0.4c0.2-0.1,0.3-0.2,0.3-0.2
				c0.1,0,0.3,0.1,0.6,0.3c0.4,0.3,0.5,0.5,0.5,0.6s-0.1,0.2-0.3,0.3c-0.1,0.1-0.2,0.1-0.2,0.2c0,1.9-0.1,3.4-0.2,4.5
				c-0.2,1-0.4,1.7-0.6,2c-0.2,0.2-0.4,0.4-0.6,0.5c-0.3,0.1-0.5,0.2-0.6,0.2s-0.2-0.2-0.3-0.5c-0.1-0.4-0.5-0.7-1.3-1V49
				c0.7,0.1,1.1,0.2,1.4,0.2c0.2,0,0.4-0.2,0.5-0.6c0.1-0.4,0.2-1.1,0.2-2c0.1-1.3,0.1-2.5,0.1-3.6h-0.3c-0.2,1-0.4,2-0.7,3
				c-0.2,0.8-0.5,1.5-0.8,2s-0.7,1-1.2,1.4c-0.6,0.5-1.2,0.9-1.9,1.2l-0.1-0.2c0.6-0.5,1.1-0.9,1.5-1.4c0.3-0.4,0.6-0.9,0.9-1.5
				c0.2-0.4,0.4-1,0.6-1.8s0.3-1.6,0.5-2.5H109c-0.4,1.2-0.7,2.2-1,2.8s-0.6,1.1-1,1.6s-0.8,0.8-1.2,1.1v-0.1
				c0.4-0.6,0.8-1.3,1.2-2.2c0.4-0.9,0.7-2,0.9-3.1h0.1c-0.1,0.2-0.2,0.3-0.3,0.4c-0.3,0.5-0.8,1.1-1.3,1.7l-0.2-0.2
				c0.3-0.6,0.5-1.1,0.7-1.6h-1.3v2.3c0.5-0.1,1-0.2,1.4-0.4v0.1c-0.5,0.4-1,0.7-1.5,0.9v4.1c0,0.1-0.2,0.3-0.5,0.3
				c-0.2,0-0.3,0-0.3,0c-0.3,0-0.4-0.1-0.4-0.4c0.1-0.7,0.1-1.3,0.1-1.9V47c-0.2,0.1-0.5,0.2-0.7,0.3c-0.1,0-0.2,0.1-0.2,0.1
				s0,0.1,0,0.2c0,0.1-0.1,0.1-0.1,0.1c-0.1,0-0.3-0.3-0.5-0.8c-0.1-0.1-0.2-0.4-0.3-0.7c0.7-0.1,1.3-0.2,1.9-0.3v-2.5h-0.8
				c-0.1,0.3-0.1,0.5-0.2,0.7c-0.2,0.5-0.5,0.9-0.8,1.4l-0.1-0.1c0.1-0.4,0.1-0.8,0.2-1.2c0-0.3,0.1-0.6,0.1-1.1
				C102.9,42.6,102.9,42,102.9,41.3z"/>
			<path fill="#009D95" d="M121.9,42.7c0.3,0.6,0.4,1.1,0.4,1.5c0,0.6-0.1,1-0.4,1.2c-0.2,0.2-0.4,0.3-0.8,0.3
				c-0.2,0-0.3-0.1-0.4-0.2c-0.1-0.1-0.1-0.2-0.1-0.4c0-0.1,0.2-0.3,0.5-0.7c0.3-0.5,0.5-1,0.5-1.7L121.9,42.7z M122.6,40.5
				c0.4,0.1,0.7,0.1,1.1,0.2c0.5,0.1,0.7,0.2,0.7,0.3s-0.1,0.2-0.3,0.2c-0.2,0.1-0.3,0.1-0.3,0.2c0,0.8,0,1.5,0,2.1
				c0.1-0.1,0.1-0.2,0.2-0.3c0.3-0.5,0.4-1,0.5-1.4c0.3,0.2,0.6,0.3,0.8,0.5c0.3,0.2,0.5,0.3,0.5,0.4c0,0.1-0.1,0.2-0.2,0.2
				c-0.2,0-0.3,0-0.3,0.1c-0.2,0.3-0.4,0.6-0.7,0.8c-0.2,0.2-0.5,0.4-0.8,0.6c0,0.8,0,1.3-0.1,1.7c0,0.3-0.1,0.5-0.1,0.8
				c0.5,0.3,0.9,0.6,1.1,0.9c0.3,0.3,0.4,0.6,0.4,0.8c0,0.3-0.1,0.5-0.2,0.7s-0.3,0.3-0.5,0.3c-0.1,0-0.2,0-0.3-0.1
				c-0.1-0.1-0.1-0.3-0.2-0.8c-0.1-0.3-0.2-0.7-0.4-1.1c-0.1,0.2-0.1,0.5-0.2,0.7c-0.2,0.5-0.5,1-0.8,1.4s-0.8,0.9-1.4,1.4l-0.1-0.2
				c0.5-0.6,0.9-1.2,1.2-1.9c0.2-0.5,0.4-1.2,0.5-2.1c0.1-0.7,0.1-2.3,0.1-4.5C122.6,41.7,122.6,41.2,122.6,40.5z M126.2,47.4
				c0.3,0.2,0.6,0.3,0.9,0.5s0.5,0.3,0.5,0.4c0,0.1-0.1,0.2-0.2,0.2c-0.2,0-0.3,0-0.3,0.1c-0.3,0.4-0.6,0.8-0.9,1.1
				c-0.4,0.4-1,0.8-1.8,1.2l-0.1-0.2c0.5-0.4,0.9-0.9,1.2-1.5C125.8,48.6,126.1,48,126.2,47.4z M124.9,43.5c0.3,0,0.6,0.1,1,0.1
				v-1.3c0-0.6,0-1.2-0.1-1.6c0.3,0,0.7,0.1,1.2,0.2c0.4,0.1,0.6,0.1,0.6,0.2c0,0.1-0.1,0.2-0.3,0.3c-0.2,0-0.2,0.1-0.2,0.3v2h1.1
				v-1.3c0-0.6,0-1.2-0.1-1.6c0.3,0,0.7,0.1,1.2,0.2c0.4,0.1,0.6,0.1,0.6,0.2c0,0.1-0.1,0.2-0.3,0.3c-0.2,0-0.2,0.1-0.2,0.3v1.9
				c0.1-0.1,0.1-0.2,0.3-0.3c0.2-0.3,0.4-0.4,0.4-0.4c0.1,0,0.3,0.1,0.6,0.4c0.3,0.3,0.4,0.5,0.4,0.5c0,0.1-0.1,0.2-0.2,0.2h-1.4v3
				c0.1-0.1,0.2-0.2,0.3-0.4c0.3-0.3,0.4-0.5,0.4-0.5c0.1,0,0.3,0.2,0.6,0.5s0.4,0.5,0.4,0.6s-0.1,0.2-0.2,0.2h-5
				c-0.7,0-1.1,0-1.4,0l-0.2-0.4c0.3,0.1,0.8,0.1,1.5,0.1v-3.1c-0.4,0-0.7,0-0.9,0L124.9,43.5z M128.2,46.9v-3.1h-1.1v3.1H128.2z
				 M128.3,47.7c0.7,0.2,1.2,0.5,1.6,0.7c0.4,0.3,0.7,0.5,0.9,0.9c0.2,0.2,0.2,0.5,0.2,0.8c0,0.2-0.1,0.4-0.2,0.5
				c-0.1,0.2-0.3,0.3-0.5,0.3c-0.1,0-0.4-0.4-0.7-1.1c-0.4-0.7-0.8-1.3-1.4-1.8L128.3,47.7z"/>
			<path fill="#009D95" d="M140.6,40.5c0.4,0.1,0.8,0.1,1.2,0.2c0.5,0.1,0.8,0.2,0.8,0.3s-0.1,0.2-0.3,0.3s-0.3,0.1-0.3,0.2
				c0,1,0,1.8,0,2.5c0.1-0.1,0.1-0.2,0.2-0.3c0.2-0.4,0.3-0.7,0.3-1c0.3,0.2,0.6,0.3,0.8,0.4c0.3,0.2,0.5,0.3,0.5,0.4
				c0,0.1-0.1,0.2-0.2,0.2c-0.2,0-0.3,0-0.3,0.1c-0.2,0.2-0.3,0.3-0.5,0.5c-0.2,0.1-0.4,0.3-0.7,0.4c0,0.7,0,1.1-0.1,1.4
				c0,0.4-0.1,0.7-0.2,1c0.4,0.2,0.7,0.4,0.9,0.7c0.3,0.3,0.5,0.7,0.5,1s-0.1,0.5-0.3,0.6c-0.1,0.1-0.3,0.2-0.4,0.2
				c-0.1,0-0.2,0-0.3-0.1s-0.2-0.3-0.2-0.6c-0.1-0.3-0.2-0.7-0.3-1.1c-0.1,0.2-0.1,0.3-0.2,0.5c-0.2,0.5-0.5,1-0.9,1.4
				c-0.3,0.4-0.8,0.9-1.4,1.4l-0.1-0.2c0.5-0.6,0.8-1.2,1.1-1.9c0.2-0.5,0.4-1.2,0.5-2.1c0.1-0.7,0.1-2.2,0.1-4.5
				C140.7,41.7,140.6,41.2,140.6,40.5z M139.9,43c0.3,0.7,0.4,1.2,0.4,1.7s-0.1,0.9-0.3,1c-0.2,0.2-0.4,0.2-0.6,0.2
				c-0.1,0-0.3,0-0.3-0.1c-0.1-0.1-0.1-0.2-0.1-0.3s0.1-0.3,0.4-0.7c0.2-0.5,0.4-1,0.4-1.7L139.9,43z M146.9,42.8
				c0.4,0.1,0.8,0.2,1.1,0.3c0.4,0.1,0.6,0.2,0.6,0.3s-0.1,0.2-0.4,0.2c-0.2,0-0.3,0.1-0.3,0.1c-0.2,0.4-0.4,0.7-0.6,0.9
				c-0.2,0.2-0.4,0.4-0.7,0.6h0.9c0,0,0.1-0.1,0.4-0.4c0.3-0.3,0.4-0.5,0.4-0.5c0.1,0,0.3,0.2,0.6,0.5s0.4,0.5,0.4,0.6
				s-0.1,0.2-0.2,0.2h-5.2c-0.6,0-1.1,0-1.4,0l-0.2-0.4c0.4,0.1,0.9,0.1,1.6,0.1h2.3c0.1-0.3,0.3-0.6,0.4-1
				C146.7,43.8,146.8,43.4,146.9,42.8z M145.1,40.5c0.5,0.1,1,0.1,1.4,0.2c0.3,0,0.4,0.1,0.4,0.2c0,0-0.1,0.1-0.3,0.2
				c-0.2,0.1-0.3,0.2-0.3,0.3v0.8h0.9c0,0,0.1-0.1,0.4-0.4c0.3-0.3,0.4-0.4,0.5-0.4s0.3,0.1,0.6,0.4c0.3,0.3,0.4,0.5,0.4,0.5
				c0,0.1-0.1,0.2-0.2,0.2h-4.5c-0.6,0-1.1,0-1.4,0l-0.2-0.4c0.4,0.1,0.9,0.1,1.6,0.1h0.8v-0.8C145.2,41.1,145.1,40.8,145.1,40.5z
				 M143.3,46.3c0.5,0.1,1.1,0.3,1.6,0.6h1.8c0.2-0.2,0.3-0.4,0.5-0.5c0.1-0.1,0.2-0.2,0.3-0.2s0.3,0.1,0.7,0.3
				c0.4,0.3,0.6,0.5,0.6,0.6s-0.1,0.2-0.3,0.3c-0.1,0.1-0.2,0.2-0.2,0.3V49c0,0.3,0,0.8,0,1.4c0,0.1-0.2,0.3-0.6,0.3
				c-0.2,0-0.3,0-0.4,0c-0.2,0-0.3-0.1-0.3-0.4v-0.4h-2.5v0.5c0,0.1-0.2,0.3-0.6,0.3c-0.2,0-0.3,0-0.4,0c-0.2,0-0.4-0.1-0.4-0.4
				c0-0.4,0-0.8,0-1.2V48C143.3,47.4,143.3,46.9,143.3,46.3z M144,42.9c0.4,0.2,0.8,0.4,1,0.5c0.3,0.2,0.4,0.4,0.4,0.6
				c0,0.3-0.1,0.6-0.3,0.8c-0.1,0.1-0.3,0.2-0.5,0.2c-0.1,0-0.2,0-0.2-0.1c-0.1-0.1-0.1-0.2-0.1-0.5c-0.1-0.4-0.2-0.9-0.4-1.4
				L144,42.9z M144.6,49.8h2.5v-2.5h-2.5V49.8z"/>
		</g>
		<path fill="#009D95" d="M11,23.5c-1.3,0-2.4-0.1-3-0.1C7.9,23.5,7.9,24,8,24c0.7,0.1,1.1,0.1,1.4,0.2c0.6,0.2,0.8,0.4,0.8,1.1
			s0,1.5,0,2.2c0,0.4-0.2,0.8-0.5,0.9c-0.3,0.2-0.8,0.3-1.4,0.3c-3.9,0-5.9-2.9-5.9-6.6c0-3.5,1.6-5.9,5-5.9c1.4,0,2.3,0.2,2.9,0.6
			s0.9,1,1.1,2.6c0.1,0.1,0.6,0,0.7-0.1c0-1,0.2-2.6,0.4-3.4c-1.3-0.1-2.5-0.5-4.3-0.5c-1.7,0-3,0.3-4.2,0.8
			c-2.4,1.1-3.8,3.3-3.8,6.1c0,4.6,2.7,7.1,7.7,7.1c1.9,0,4-0.6,4.7-0.8c0-0.1,0.1-0.4,0.1-0.5c-0.5-0.2-0.5-0.3-0.5-0.6
			c0-0.4,0-1.7,0-2.4c0-0.6,0.1-0.9,0.5-1c0.2-0.1,0.5-0.1,0.7-0.2c0.1-0.1,0.1-0.6,0-0.6C12.9,23.4,12.2,23.5,11,23.5z M40.5,27.6
			c-0.4,0.5-0.7,0.7-1.6,0.7c-0.9,0-2.8,0-3.2-0.1c-0.3-0.1-0.5-0.4-0.5-0.8c0-1,0-3.3,0-4.3c0-0.1,0.1-0.2,0.1-0.2
			c0.8,0,2.6,0,3.2,0c0.5,0,0.6,0.3,0.7,0.6c0.1,0.3,0.1,0.4,0.2,0.9c0.1,0.1,0.6,0.1,0.7,0c0-0.5,0-1.2,0-2s0.1-1.6,0.2-2
			c-0.1-0.1-0.6-0.1-0.7-0.1c-0.1,0.3-0.2,0.6-0.2,0.9c-0.1,0.3-0.3,0.6-0.7,0.6c-0.8,0.1-2.4,0.1-3.3,0c-0.1,0-0.1-0.1-0.1-0.2
			c0-1,0-3.4,0-4.6c0-0.1,0.1-0.4,0.3-0.4c0.3,0,2.9,0,3.3,0c0.7,0.1,0.9,0.3,1.1,0.8c0.1,0.3,0.2,0.7,0.2,1.3
			c0.1,0.1,0.6,0.1,0.7,0c0.1-0.9,0.2-2.3,0.4-3l-0.1-0.1c-0.5,0.1-1.6,0.1-2.4,0.1h-4.3c-1.2,0-2.3-0.1-2.9-0.1
			c-0.1,0.1-0.1,0.5,0,0.6c0.5,0.1,0.9,0.1,1.1,0.2c0.5,0.1,0.6,0.3,0.6,1.1c0,0.4,0,2.3,0,4.3c0,2.4,0,4.8,0,5.2
			c-0.1,0.8-0.2,1-0.7,1.2c-0.4,0.1-1,0.2-1.6,0.2c-0.1,0.1-0.1,0.6,0,0.6c0.9,0,2-0.1,3.4-0.1c2.2,0,3.8,0.1,5.6,0.1
			c1.1,0,1.2-0.1,1.3-0.3c0.3-0.6,0.8-2.3,0.9-3c-0.1-0.1-0.5-0.3-0.6-0.2C41.3,26.3,40.8,27.2,40.5,27.6z M54.1,27.6
			c-0.4,0.5-0.7,0.7-1.6,0.7c-0.9,0-2.8,0-3.2-0.1c-0.3-0.1-0.5-0.4-0.5-0.8c0-1,0-3.3,0-4.3c0-0.1,0.1-0.2,0.1-0.2
			c0.8,0,2.6,0,3.2,0c0.5,0,0.6,0.3,0.7,0.6c0.1,0.3,0.1,0.4,0.2,0.9c0.1,0.1,0.6,0.1,0.7,0c0-0.5,0-1.2,0-2s0.1-1.6,0.2-2
			c-0.1-0.1-0.6-0.1-0.7-0.1C53.1,20.7,53,21,53,21.2c-0.1,0.3-0.3,0.6-0.7,0.6c-0.8,0.1-2.4,0.1-3.3,0c-0.1,0-0.1-0.1-0.1-0.2
			c0-1,0-3.4,0-4.6c0-0.1,0.1-0.4,0.3-0.4c0.3,0,2.9,0,3.3,0c0.7,0.1,0.9,0.3,1.1,0.8c0.1,0.3,0.2,0.7,0.2,1.3
			c0.1,0.1,0.6,0.1,0.7,0c0.1-0.9,0.2-2.3,0.4-3l-0.1-0.1c-0.5,0.1-1.6,0.1-2.4,0.1H48c-1.2,0-2.3-0.1-2.9-0.1
			c-0.1,0.1-0.1,0.5,0,0.6c0.5,0.1,0.9,0.1,1.1,0.2c0.5,0.1,0.6,0.3,0.6,1.1c0,0.4,0,2.3,0,4.3c0,2.4,0,4.8,0,5.2
			c-0.1,0.8-0.2,1-0.7,1.2c-0.4,0.1-1,0.2-1.6,0.2c-0.1,0.1-0.1,0.6,0,0.6c0.9,0,2-0.1,3.4-0.1c2.2,0,3.8,0.1,5.6,0.1
			c1.1,0,1.2-0.1,1.3-0.3c0.3-0.6,0.8-2.3,0.9-3c-0.1-0.1-0.5-0.3-0.6-0.2C54.9,26.3,54.5,27.2,54.1,27.6z M71.1,15.9
			c-1.3,0-2.3-0.1-2.9-0.1c-0.1,0.1-0.1,0.5,0,0.6c0.6,0.1,1.1,0.2,1.4,0.3c0.6,0.2,0.8,0.5,0.8,1.1c0.1,1.6,0.1,5.6,0.1,8.5
			c0,0,0,0-0.1,0c-1-1.2-5.5-6.6-7.7-9.4c-0.6-0.7-0.7-0.9-0.8-1.2c-0.2,0-0.5,0-1,0c-1.1,0-2.2-0.1-2.7-0.1c-0.1,0.1-0.1,0.5,0,0.6
			c0.8,0.1,1.3,0.2,1.7,0.5c0.5,0.3,0.6,0.7,0.6,1.1c0,4.5-0.1,8-0.2,9.2c0,0.8-0.3,1.1-0.8,1.3c-0.3,0.1-0.7,0.2-1.1,0.2
			c-0.1,0.1-0.1,0.6,0,0.6c0.5,0,1.3-0.1,2.6-0.1c1.2,0,2.2,0.1,2.7,0.1c0.1-0.1,0.1-0.5,0-0.6c-0.5-0.1-1-0.1-1.3-0.2
			c-0.6-0.1-0.8-0.4-0.9-1.3c-0.1-1.2-0.1-6.3,0-8.5h0.1c1.3,1.6,7.2,9,8.4,10.7c0.3,0,1.3,0,1.5,0c0-0.7,0-2,0-3
			c0.1-4.1,0-6.8,0.2-8.5c0-0.6,0.2-1,0.7-1.2c0.3-0.1,0.6-0.2,0.9-0.2c0.1-0.1,0.1-0.5,0-0.6C73.1,15.8,71.8,15.9,71.1,15.9z
			 M100.7,1.1C100.2,0.7,86.8,2.9,84.5,22c-1.1-6.7-4.8-15.4-15.2-21.9c-2.2-1.4,7,8.4,11.6,17.5c3.7,7.4,2.8,14.5,3.1,14.5
			c0.3,0,0.9-2.2,0.8-5.5C88,11.3,101.3,1.5,100.7,1.1z M103.7,21.7C103.7,21.7,103.7,21.6,103.7,21.7c1.3-0.6,2.1-1.6,2.1-2.8
			c0-2.5-2.3-3-3.8-3c-1.4,0-2.2,0-3.5,0s-2-0.1-2.5-0.1c-0.1,0-0.1,0.5,0,0.6c0.4,0,0.9,0.1,1.3,0.2s0.6,0.3,0.6,0.9
			c0,0.8,0,2.2,0,4.9c0,2.3,0,4.2,0,4.9c-0.1,0.8-0.2,1-0.7,1.1c-0.4,0.1-1,0.1-1.4,0.2c-0.1,0.1-0.1,0.6,0,0.6
			c1.4,0,3.9,0.1,4.9,0.1c1.1,0,2.4-0.1,3.3-0.5c1.6-0.7,2.7-1.9,2.7-3.7C106.7,23.1,105.4,22.1,103.7,21.7z M99.8,17
			c0-0.1,0.1-0.3,0.2-0.3c0.2,0,0.5-0.1,0.8-0.1c2,0,3.2,0.9,3.2,2.7c0,0.8-0.3,1.6-1,2c-0.3,0.2-0.7,0.3-1.7,0.3
			c-0.6,0-1.1,0-1.3,0l-0.1-0.1C99.7,19.9,99.7,17.6,99.8,17z M101.9,28.5c-0.5,0-1.3-0.1-1.7-0.3c-0.3-0.2-0.5-0.5-0.5-0.8
			c-0.1-0.9-0.1-3.5-0.1-4.9l0.1-0.1c0.2,0,0.7,0,1,0c2.4,0,3.9,1.1,3.9,3.2C104.7,27.5,103.6,28.5,101.9,28.5z M120.7,26.8
			c-0.8-1.8-3.1-8.6-3.6-9.9c-0.1-0.4-0.3-0.8-0.3-1.1c-0.1,0-0.3,0-0.7,0c-0.4,0-0.6,0-0.7,0c0,0.3-0.2,0.8-0.4,1.2
			c-0.5,1.4-2.5,6.9-3.6,9.5c-0.7,1.7-1,1.8-2.5,2c-0.1,0.1-0.1,0.5,0,0.6c0.4,0,1.1-0.1,2.3-0.1c1.2,0,2.3,0.1,2.8,0.1
			c0.1-0.1,0.1-0.5,0-0.6c-0.4,0-0.8-0.1-1-0.2c-0.7-0.2-0.7-0.4-0.7-0.8c0-0.5,0.7-2.3,1.2-3.5c0-0.1,0.1-0.2,0.2-0.2
			c0.3,0,0.4,0,1.8,0c1,0,1.7,0,2,0c0,0,0.2,0.1,0.2,0.2c0.4,1,1,2.8,1.3,3.7c0.1,0.2,0,0.4-0.2,0.5c-0.3,0.1-0.7,0.2-1.2,0.2
			c-0.1,0.1,0,0.5,0,0.6c0.5,0,1.8-0.1,2.8-0.1s2.1,0,2.6,0.1c0.1-0.1,0.1-0.6,0-0.6C121.5,28.4,121.3,28.3,120.7,26.8z M117.1,22.9
			c-0.2,0-0.9,0-1.4,0c-0.8,0-1.5,0-1.7,0c-0.1,0-0.1-0.1-0.1-0.1c0.4-1.1,1.2-3.6,1.6-4.7h0.1c0.3,0.9,1.2,3.3,1.6,4.7
			C117.2,22.9,117.2,22.9,117.1,22.9z M129.4,28.4c-0.6-0.2-0.7-0.4-0.7-1.4c0-1.5,0-3.1,0-4.9c0-1.5,0-3.5,0-4.4
			c0-0.7,0.1-1,0.6-1.1c0.2-0.1,0.7-0.2,1.1-0.2c0.1-0.1,0.1-0.5,0-0.6c-0.6,0-1.5,0.1-2.6,0.1c-1.4,0-2.2-0.1-2.7-0.1
			c-0.1,0.1-0.1,0.5,0,0.6c0.4,0,0.8,0.1,1.1,0.2c0.6,0.2,0.6,0.4,0.7,1c0,1.3,0,2.9,0,4.6c0,1.9,0,3.9,0,4.9c0,0.8-0.1,1.1-0.7,1.3
			c-0.3,0.1-0.7,0.1-1.2,0.2c-0.1,0.1-0.1,0.6,0,0.6c0.3,0,1.7-0.1,2.7-0.1c1.1,0,2.3,0.1,3,0.1c0.1-0.1,0.1-0.5,0-0.6
			C130.1,28.5,129.7,28.5,129.4,28.4z M137.2,28.4c-0.3-0.1-0.5-0.2-0.9-0.5c-1.4-1.1-4.6-4.7-5.4-5.9v-0.1c1-1,2.6-2.7,3.9-4.1
			c0.9-1,1.4-1.2,2.6-1.4c0.1-0.1,0.1-0.5,0-0.6c-0.6,0-1.2,0.1-2.6,0.1c-1.1,0-1.8-0.1-2.5-0.1c-0.1,0.1-0.1,0.5,0,0.6
			c0.5,0.1,0.9,0.2,1.1,0.2c0.3,0.1,0.4,0.2,0.4,0.4c0,0.2-0.1,0.5-0.4,0.9c-1.2,1.6-3.5,4-4.5,4.4c0,0-0.1,0.3,0,0.3
			c0.1,0.1,0.4,0.3,0.4,0.3c1.2,1.5,3.8,4.6,4.8,5.5c0.3,0.3,0.6,0.5,0.9,0.6c0.6,0.2,2.8,0.2,3.6,0.1c0.1-0.1,0.1-0.5,0.1-0.6
			C138.1,28.6,137.7,28.5,137.2,28.4z M149.6,27.6c-0.4,0.5-0.7,0.7-1.6,0.7c-0.9,0-2.8,0-3.2-0.1c-0.3-0.1-0.5-0.4-0.5-0.8
			c0-1,0-3.3,0-4.3c0-0.1,0.1-0.2,0.1-0.2c0.8,0,2.6,0,3.2,0c0.5,0,0.6,0.3,0.7,0.6c0.1,0.3,0.1,0.4,0.2,0.9c0.1,0.1,0.6,0.1,0.7,0
			c0-0.5,0-1.2,0-2s0.1-1.6,0.2-2c-0.1-0.1-0.6-0.1-0.7-0.1c-0.1,0.3-0.2,0.6-0.2,0.9c-0.1,0.3-0.3,0.6-0.7,0.6
			c-0.8,0.1-2.4,0.1-3.3,0c-0.1,0-0.1-0.1-0.1-0.2c0-1,0-3.4,0-4.6c0-0.1,0.1-0.4,0.3-0.4c0.3,0,2.9,0,3.3,0
			c0.7,0.1,0.9,0.3,1.1,0.8c0.1,0.3,0.2,0.7,0.2,1.3c0.1,0.1,0.6,0.1,0.7,0c0.1-0.9,0.2-2.3,0.4-3l-0.1-0.1
			c-0.5,0.1-1.6,0.1-2.4,0.1h-4.3c-1.2,0-2.3-0.1-2.9-0.1c-0.1,0.1-0.1,0.5,0,0.6c0.5,0.1,0.9,0.1,1.1,0.2c0.5,0.1,0.6,0.3,0.6,1.1
			c0,0.4,0,2.3,0,4.3c0,2.4,0,4.8,0,5.2c-0.1,0.8-0.2,1-0.7,1.2c-0.4,0.1-1,0.2-1.6,0.2c-0.1,0.1-0.1,0.6,0,0.6c0.9,0,2-0.1,3.4-0.1
			c2.2,0,3.8,0.1,5.6,0.1c1.1,0,1.2-0.1,1.3-0.3c0.3-0.6,0.8-2.3,0.9-3c-0.1-0.1-0.5-0.3-0.6-0.2C150.4,26.3,149.9,27.2,149.6,27.6z
			 M165.1,27.4c-1.1-1.1-2.8-3.5-3.5-4.7c0,0,0-0.1,0-0.2c1.3-0.6,2.5-1.7,2.5-3.5s-1.3-3.3-3.9-3.3c-0.9,0-2,0-3.6,0
			c-0.7,0-2-0.1-2.5-0.1c-0.1,0-0.1,0.5,0,0.6c0.4,0,0.8,0.1,1.2,0.2c0.5,0.1,0.7,0.4,0.7,1c0,0.7,0,2.8,0,5c0,1.2,0,4.1,0,4.6
			c0,0.8-0.2,1.1-0.7,1.2c-0.3,0.1-0.6,0.1-1.1,0.2c-0.1,0.1-0.1,0.5,0,0.6c0.4,0,1.3-0.1,2.7-0.1s2.5,0.1,2.9,0.1
			c0.1-0.1,0.2-0.5,0-0.6c-0.5-0.1-0.9-0.1-1.2-0.2c-0.5-0.1-0.6-0.3-0.7-1c0-0.7,0-2.7,0-3.9c0,0,0-0.1,0.1-0.1c0.3,0,1.2,0,1.5,0
			c0.2,0,0.4,0.1,0.5,0.3c0.8,1.2,2.1,3.3,3,4.3c0.4,0.5,0.7,0.7,1,0.9c0.8,0.4,2.5,0.5,3.5,0.4c0.1,0,0.2-0.5,0.1-0.6
			C166.3,28.5,165.9,28.4,165.1,27.4z M160.7,22.3c-0.4,0.2-1.3,0.2-2.8,0.2c-0.1,0-0.1-0.1-0.1-0.1c0-1.7,0-4.6,0-5.4
			c0-0.1,0.1-0.3,0.2-0.3c0.2-0.1,0.6-0.1,0.8-0.1c2.3,0,3.3,1.2,3.3,3.2C162.1,21.2,161.4,22,160.7,22.3z M180,15.8
			c-0.7,0-1.2,0.1-2.3,0.1c-0.8,0-1.7,0-2.4-0.1c-0.1,0-0.2,0.5-0.1,0.6c0.5,0.1,0.7,0.1,1,0.2c0.6,0.1,0.6,0.4,0.4,0.8
			c-0.4,1-1.9,3.7-2.7,5h-0.1c-0.5-0.8-2.2-4-2.7-5.2c-0.1-0.3-0.1-0.5,0.2-0.6c0.1,0,0.5-0.1,0.8-0.2c0.1-0.1,0.1-0.5,0-0.6
			c-0.3,0-1.7,0.1-2.4,0.1c-1,0-2.1-0.1-2.7-0.1c-0.1,0.1-0.1,0.5,0,0.6c0.5,0.1,0.7,0.1,1,0.2c0.8,0.2,1,0.4,1.8,1.8
			c0.9,1.6,2.1,3.9,2.6,5c0.1,0.3,0.2,0.7,0.2,1c0,0.9,0,1.7,0,2.8c0,0.7-0.2,1-0.7,1.2c-0.4,0.1-0.9,0.2-1.5,0.2
			c-0.1,0.1-0.1,0.5,0,0.6c0.6,0,1.6-0.1,3.1-0.1c1.3,0,2.4,0.1,3,0.1c0.1-0.1,0.1-0.5,0.1-0.6c-0.6-0.1-1-0.1-1.3-0.2
			c-0.6-0.1-0.7-0.5-0.7-1.4c0-1.1,0-2.2,0-3c0-0.2,0.1-0.6,0.2-0.8c0.5-1,2.1-3.8,3-5.2c0.6-0.9,0.9-1.2,1.5-1.4l0.9-0.2
			C180.1,16.4,180.1,15.9,180,15.8z M27.3,27.4c-1.1-1.1-2.8-3.5-3.5-4.7c0,0,0-0.1,0-0.2c1.3-0.6,2.5-1.7,2.5-3.5s-1.3-3.3-3.9-3.3
			c-0.9,0-2,0-3.6,0c-0.7,0-2-0.1-2.5-0.1c-0.1,0-0.1,0.5,0,0.6c0.4,0,0.8,0.1,1.2,0.2c0.5,0.1,0.7,0.4,0.7,1c0,0.7,0,2.8,0,5
			c0,1.2,0,4.1,0,4.6c0,0.8-0.2,1.1-0.7,1.2c-0.3,0.1-0.6,0.1-1.1,0.2c-0.1,0.1-0.1,0.5,0,0.6c0.4,0,1.3-0.1,2.7-0.1
			c1.4,0,2.5,0.1,2.9,0.1c0.1-0.1,0.2-0.5,0-0.6c-0.5-0.1-0.9-0.1-1.2-0.2c-0.5-0.1-0.6-0.3-0.7-1c0-0.7,0-2.7,0-3.9
			c0,0,0-0.1,0.1-0.1c0.3,0,1.2,0,1.5,0c0.2,0,0.4,0.1,0.5,0.3c0.8,1.2,2.1,3.3,3,4.3c0.4,0.5,0.7,0.7,1,0.9
			c0.8,0.4,2.5,0.5,3.5,0.4c0.1,0,0.2-0.5,0.1-0.6C28.5,28.5,28.2,28.4,27.3,27.4z M23,22.3c-0.4,0.2-1.3,0.2-2.8,0.2
			c-0.1,0-0.1-0.1-0.1-0.1c0-1.7,0-4.6,0-5.4c0-0.1,0.1-0.3,0.2-0.3c0.2-0.1,0.6-0.1,0.8-0.1c2.3,0,3.3,1.2,3.3,3.2
			C24.4,21.2,23.7,22,23,22.3z"/>
	</g>
</g>
</svg>
